<?xml version="1.0" encoding="UTF-8"?>
<svg width="20px" height="20px" viewBox="0 0 20 20" version="1.1" xmlns="http://www.w3.org/2000/svg" xmlns:xlink="http://www.w3.org/1999/xlink">
    <title>icon-set/icon-selectpromotion</title>
    <g id="H5" stroke="none" stroke-width="1" fill="none" fill-rule="evenodd">
        <g id="Deposit" transform="translate(-15.000000, -109.000000)" fill="#FFFFFF" fill-rule="nonzero">
            <g id="icon-set/icon-selectpromotion" transform="translate(15.000000, 109.000000)">
                <path d="M8.38850367,0.652714462 C9.05221246,-0.217571487 10.37963,-0.217571487 11.0433387,0.652714462 L11.5684248,1.34065479 C11.9884936,1.89183589 12.7152126,2.12391214 13.3831221,1.92084542 L14.219059,1.67219229 C15.2734318,1.35308745 16.3488081,2.11976792 16.3656107,3.20969747 L16.3782129,4.06755076 C16.3908149,4.75549109 16.8402886,5.36469125 17.4997967,5.58847907 L18.3231315,5.86614173 C19.3691029,6.22254454 19.7765697,7.46581019 19.1422658,8.35681722 L18.6423839,9.06133446 C18.2391177,9.62494823 18.2391177,10.379196 18.6423839,10.9428098 L19.1380651,11.6473269 C19.772369,12.5424782 19.3649023,13.7857438 18.3189309,14.1380025 L17.4955959,14.4156651 C16.8318872,14.639453 16.3866142,15.2486531 16.3740121,15.9365935 L16.3614101,16.7944468 C16.3446073,17.8843762 15.2692311,18.6510568 14.2148584,18.3319519 L13.3831221,18.0832988 C12.7152126,17.8802321 11.9884936,18.1123083 11.5684248,18.6634894 L11.0517401,19.3472855 C10.3880313,20.2175715 9.06061376,20.2175715 8.39690505,19.3472855 L7.87181901,18.6593452 C7.45175018,18.1081641 6.7250311,17.8760878 6.05712166,18.0791546 L5.22538537,18.3319519 C4.1710126,18.6510568 3.0956364,17.8843762 3.07883364,16.7944468 L3.06623158,15.9365935 C3.05362952,15.2486531 2.60415586,14.639453 1.9446478,14.4156651 L1.12131289,14.1380025 C0.0753414974,13.7815997 -0.332125269,12.538334 0.302178667,11.6473269 L0.802060576,10.9428098 C1.20532665,10.379196 1.20532665,9.62494823 0.802060576,9.06133446 L0.302178667,8.35681722 C-0.332125269,7.46166597 0.0753414974,6.21840033 1.12131289,5.86614173 L1.9446478,5.58847907 C2.60835655,5.36469125 3.05362952,4.75549109 3.06623158,4.06755076 L3.07883364,3.20969747 C3.0956364,2.11976792 4.1710126,1.35308745 5.22538537,1.67219229 L6.05712166,1.92084542 C6.7250311,2.12391214 7.45175018,1.89183589 7.87181901,1.34065479 Z M10.0365856,4.71016778 C9.94400171,4.49055013 9.63341498,4.49055013 9.54083107,4.71016778 L8.20697684,7.86663316 L4.79213776,8.15999497 C4.55475692,8.18044955 4.45894334,8.47596448 4.63872837,8.63152698 L7.229463,10.8761485 L6.45326534,14.2145521 C6.39943749,14.4460118 6.65027529,14.6284882 6.85428286,14.5057608 L9.78897748,12.7359008 L12.7236721,14.5057608 C12.9271414,14.6290265 13.1785175,14.4465501 13.1246896,14.2145521 L12.348492,10.8761485 L14.9386883,8.63206525 C15.1184734,8.47650275 15.0221215,8.18098783 14.7852789,8.16053325 L11.3704398,7.86717144 Z" id="Combined-Shape"></path>
            </g>
        </g>
    </g>
</svg>